<?xml version="1.0" encoding="UTF-8"?>
<svg width="6.2544mm" height="9.2086mm" version="1.1" viewBox="0 0 6.2544 9.2086" xmlns="http://www.w3.org/2000/svg" xmlns:cc="http://creativecommons.org/ns#" xmlns:dc="http://purl.org/dc/elements/1.1/" xmlns:rdf="http://www.w3.org/1999/02/22-rdf-syntax-ns#">
<metadata>
<rdf:RDF>
<cc:Work rdf:about="">
<dc:format>image/svg+xml</dc:format>
<dc:type rdf:resource="http://purl.org/dc/dcmitype/StillImage"/>
<dc:title/>
</cc:Work>
</rdf:RDF>
</metadata>
<g transform="translate(-44.055 -210.38)">
<path d="m44.575 212.79-0.03152 1.0431 0.81825 0.60129 0.04003 2.8518-0.52391 0.67519-0.02281 0.71959-0.64111-0.0712 0.14042 0.84743 5.814-0.0256-0.05005-0.79171-0.47121 0.0481-0.02649-0.75239-0.51922-0.56692-0.01074-3.0286 0.60532-0.57068-0.01905-0.98364-0.61221 0.10246 0.04187-2.0132-0.49942 0.83006-0.37206-6e-3 -0.68404-0.73725-0.70961 5e-3 -0.77707 0.76773-0.33583 4e-3 -0.43067-1.0505-0.08845 2.1244z" stroke="#000" stroke-width=".26458px"/>
<path d="m45.361 214.44 3.7289-0.0944 0.60532-0.57068-5.1525 0.0637z" fill="none" stroke="#c3c3c3" stroke-width=".165"/>
<path d="m47.202 211.6-0.46631 0.37475 0.52358 0.49902 0.40495-0.49755z" fill="#fff" stroke-width="0"/>
</g>
</svg>
