<?xml version="1.0" encoding="UTF-8" standalone="no"?>
<svg
   xmlns:dc="http://purl.org/dc/elements/1.1/"
   xmlns:cc="http://creativecommons.org/ns#"
   xmlns:rdf="http://www.w3.org/1999/02/22-rdf-syntax-ns#"
   xmlns:svg="http://www.w3.org/2000/svg"
   xmlns="http://www.w3.org/2000/svg"
   width="34.814957mm"
   height="41.958012mm"
   viewBox="0 0 34.814957 41.958012"
   version="1.1"
   id="svg8">
  <defs
     id="defs2" />
  <metadata
     id="metadata5">
    <rdf:RDF>
      <cc:Work
         rdf:about="">
        <dc:format>image/svg+xml</dc:format>
        <dc:type
           rdf:resource="http://purl.org/dc/dcmitype/StillImage" />
        <dc:title></dc:title>
      </cc:Work>
    </rdf:RDF>
  </metadata>
  <g
     id="layer1"
     transform="translate(-4.6925364,-60.232049)">
    <path
       style="fill:#000000;stroke:#000000;stroke-width:0.264583px;stroke-linecap:butt;stroke-linejoin:miter;stroke-opacity:1;fill-opacity:1"
       d="m 13.027594,70.365867 -0.140018,4.30158 -8.0507209,14.206143 1.4329951,4.22649 4.9009298,0.0991 12.202176,-11.76583 -0.673303,6.95101 -7.028711,9.67941 -1.047136,0.82541 -0.292354,3.16602 23.560192,-0.41346 -0.397023,-9.84037 -2.140932,-6.52314 -2.982452,-7.403483 4.242983,-5.80586 0.0464,-3.22849 2.676509,-0.0832 0.03626,2.5408 -2.694101,0.13071 -5.816616,4.46723 0.882811,-6.79219 0.213027,-4.72651 2.064919,0.0334 0.556771,2.59373 -2.482527,0.24372 -4.928339,6.87897 -0.764673,-12.44265 2.982811,0.297 -0.739932,2.83089 -6.091461,7.14728 -2.017598,-9.5922 0.959633,-1.93023 1.517157,1.20265 -5.681483,10.13796 -3.523893,-9.51754 1.6685,-1.78404 1.212629,1.52121 z"
       id="path24" />
    <path
       style="fill:#ffffff;fill-opacity:1;stroke:#000000;stroke-width:0.264583px;stroke-linecap:butt;stroke-linejoin:miter;stroke-opacity:1"
       d="m 13.873821,77.142267 -1.900648,2.12281 1.678348,1.259853 1.778891,-2.558443 z"
       id="path26" />
    <path
       style="fill:#ffffff;fill-opacity:1;stroke:#000000;stroke-width:0.264583px;stroke-linecap:butt;stroke-linejoin:miter;stroke-opacity:1"
       d="m 7.5288832,87.64153 0.01634,2.66531 1.757659,-0.54121 z"
       id="path28" />
  </g>
</svg>
