<?xml version="1.0" encoding="UTF-8"?>
<svg width="34.815mm" height="41.958mm" version="1.1" viewBox="0 0 34.815 41.958" xmlns="http://www.w3.org/2000/svg" xmlns:cc="http://creativecommons.org/ns#" xmlns:dc="http://purl.org/dc/elements/1.1/" xmlns:rdf="http://www.w3.org/1999/02/22-rdf-syntax-ns#">
<metadata>
<rdf:RDF>
<cc:Work rdf:about="">
<dc:format>image/svg+xml</dc:format>
<dc:type rdf:resource="http://purl.org/dc/dcmitype/StillImage"/>
<dc:title/>
</cc:Work>
</rdf:RDF>
</metadata>
<g transform="translate(-4.6925 -60.232)" stroke="#000" stroke-width=".26458px">
<path d="m13.028 70.366-0.14002 4.3016-8.0507 14.206 1.433 4.2265 4.9009 0.0991 12.202-11.766-0.6733 6.951-7.0287 9.6794-1.0471 0.82541-0.29235 3.166 23.56-0.41346-0.39702-9.8404-2.1409-6.5231-2.9825-7.4035 4.243-5.8059 0.0464-3.2285 2.6765-0.0832 0.03626 2.5408-2.6941 0.13071-5.8166 4.4672 0.88281-6.7922 0.21303-4.7265 2.0649 0.0334 0.55677 2.5937-2.4825 0.24372-4.9283 6.879-0.76467-12.443 2.9828 0.297-0.73993 2.8309-6.0915 7.1473-2.0176-9.5922 0.95963-1.9302 1.5172 1.2026-5.6815 10.138-3.5239-9.5175 1.6685-1.784 1.2126 1.5212z"/>
<path d="m13.874 77.142-1.9006 2.1228 1.6783 1.2599 1.7789-2.5584z" fill="#fff"/>
<path d="m7.5289 87.642 0.01634 2.6653 1.7577-0.54121z" fill="#fff"/>
</g>
</svg>
