<?xml version="1.0" encoding="UTF-8" standalone="no"?>
<svg
   xmlns:dc="http://purl.org/dc/elements/1.1/"
   xmlns:cc="http://creativecommons.org/ns#"
   xmlns:rdf="http://www.w3.org/1999/02/22-rdf-syntax-ns#"
   xmlns:svg="http://www.w3.org/2000/svg"
   xmlns="http://www.w3.org/2000/svg"
   xmlns:sodipodi="http://sodipodi.sourceforge.net/DTD/sodipodi-0.dtd"
   xmlns:inkscape="http://www.inkscape.org/namespaces/inkscape"
   width="8.3310452mm"
   height="9.3643742mm"
   viewBox="0 0 8.3310452 9.3643742"
   version="1.1"
   id="svg8"
   inkscape:version="1.0.2 (e86c870879, 2021-01-15)"
   sodipodi:docname="Buffalo.svg">
  <defs
     id="defs2" />
  <sodipodi:namedview
     id="base"
     pagecolor="#ffffff"
     bordercolor="#666666"
     borderopacity="1.0"
     inkscape:pageopacity="0.0"
     inkscape:pageshadow="2"
     inkscape:zoom="12.971544"
     inkscape:cx="16.418561"
     inkscape:cy="18.495128"
     inkscape:document-units="mm"
     inkscape:current-layer="layer1"
     inkscape:document-rotation="0"
     showgrid="false"
     inkscape:window-width="1352"
     inkscape:window-height="736"
     inkscape:window-x="5"
     inkscape:window-y="23"
     inkscape:window-maximized="0" />
  <metadata
     id="metadata5">
    <rdf:RDF>
      <cc:Work
         rdf:about="">
        <dc:format>image/svg+xml</dc:format>
        <dc:type
           rdf:resource="http://purl.org/dc/dcmitype/StillImage" />
        <dc:title></dc:title>
      </cc:Work>
    </rdf:RDF>
  </metadata>
  <g
     inkscape:label="Layer 1"
     inkscape:groupmode="layer"
     id="layer1"
     transform="translate(-103.53023,-202.51142)">
    <path
       style="fill:#000000;fill-opacity:1;stroke:#000000;stroke-width:0.264583px;stroke-linecap:butt;stroke-linejoin:miter;stroke-opacity:1"
       d="m 106.15288,203.18744 -0.90219,1.28016 -1.55534,1.32056 0.004,0.87811 1.02232,0.18115 -1.05518,0.83042 0.0441,0.72363 0.87778,-0.0642 0.90644,-0.74909 0.45217,1.80484 0.19506,1.48567 0.73997,0.83121 1.45808,0.0324 0.94594,-0.91913 0.087,-1.73157 0.42513,-0.58028 -0.004,-0.98147 0.7883,0.82883 0.79996,-0.0459 0.0527,-0.86102 -0.91212,-0.41924 0.0196,-0.33738 0.91673,-0.0422 0.2693,-0.21005 -0.003,-0.55064 -2.31921,-2.14801 -0.31363,-0.74185 -0.10963,0.7725 0.4377,0.84935 0.64496,0.78511 -0.0199,0.53173 -4.5656,0.009 c -0.16395,-0.49554 0,0 -0.16395,-0.49554 l 0.88881,-1.31276 z"
       id="path24"
       sodipodi:nodetypes="ccccccccccccccccccccccccccccccccccc" />
    <path
       style="fill:#ffffff;fill-opacity:1;stroke:#000000;stroke-width:0;stroke-linecap:butt;stroke-linejoin:miter;stroke-miterlimit:4;stroke-dasharray:none;stroke-opacity:1"
       d="m 106.26938,207.65868 -0.0482,0.63596 0.56819,0.18772 z"
       id="path26" />
    <path
       style="fill:#ffffff;fill-opacity:1;stroke:#000000;stroke-width:0;stroke-linecap:butt;stroke-linejoin:miter;stroke-miterlimit:4;stroke-dasharray:none;stroke-opacity:1"
       d="m 109.08499,207.62032 -0.49179,0.88224 0.6288,-0.0154 z"
       id="path28" />
  </g>
</svg>
