<?xml version="1.0" encoding="UTF-8"?>
<svg width="8.331mm" height="9.3644mm" version="1.1" viewBox="0 0 8.331 9.3644" xmlns="http://www.w3.org/2000/svg" xmlns:cc="http://creativecommons.org/ns#" xmlns:dc="http://purl.org/dc/elements/1.1/" xmlns:rdf="http://www.w3.org/1999/02/22-rdf-syntax-ns#">
<metadata>
<rdf:RDF>
<cc:Work rdf:about="">
<dc:format>image/svg+xml</dc:format>
<dc:type rdf:resource="http://purl.org/dc/dcmitype/StillImage"/>
<dc:title/>
</cc:Work>
</rdf:RDF>
</metadata>
<g transform="translate(-103.53 -202.51)">
<path d="m106.15 203.19-0.90219 1.2802-1.5553 1.3206 4e-3 0.87811 1.0223 0.18115-1.0552 0.83042 0.0441 0.72363 0.87778-0.0642 0.90644-0.74909 0.45217 1.8048 0.19506 1.4857 0.73997 0.83121 1.4581 0.0324 0.94594-0.91913 0.087-1.7316 0.42513-0.58028-4e-3 -0.98147 0.7883 0.82883 0.79996-0.0459 0.0527-0.86102-0.91212-0.41924 0.0196-0.33738 0.91673-0.0422 0.2693-0.21005-3e-3 -0.55064-2.3192-2.148-0.31363-0.74185-0.10963 0.7725 0.4377 0.84935 0.64496 0.78511-0.0199 0.53173-4.5656 9e-3c-0.16395-0.49554 0 0-0.16395-0.49554l0.88881-1.3128z" stroke="#000" stroke-width=".26458px"/>
<path d="m106.27 207.66-0.0482 0.63596 0.56819 0.18772z" fill="#fff" stroke-width="0"/>
<path d="m109.08 207.62-0.49179 0.88224 0.6288-0.0154z" fill="#fff" stroke-width="0"/>
</g>
</svg>
