<?xml version="1.0" encoding="UTF-8"?>
<svg width="7.7092mm" height="7.96mm" version="1.1" viewBox="0 0 7.7092 7.96" xmlns="http://www.w3.org/2000/svg" xmlns:cc="http://creativecommons.org/ns#" xmlns:dc="http://purl.org/dc/elements/1.1/" xmlns:rdf="http://www.w3.org/1999/02/22-rdf-syntax-ns#">
<metadata>
<rdf:RDF>
<cc:Work rdf:about="">
<dc:format>image/svg+xml</dc:format>
<dc:type rdf:resource="http://purl.org/dc/dcmitype/StillImage"/>
<dc:title/>
</cc:Work>
</rdf:RDF>
</metadata>
<g transform="translate(-98.831 -232.7)">
<path d="m101.65 239.71-1.7483 0.0571-0.74918 0.78681 7.1918 0.0315-0.67392-0.6925-1.9301-0.0214 0.0865-0.75928 1.1686 0.0881-0.12389-3.1241-0.94515-1.6897-1.5716-0.94617-0.42426 0.064 0.0279-0.60179-0.73037 0.65943-0.79597-0.65721-0.17786 0.95451-1.3399 2.0342 0.02469 1.3141 1.1171 0.38678 2.3114-2.3878-0.15776 1.5229-1.5338 1.7859-0.0274 0.69206 1.1773-0.046z" stroke="#000" stroke-width=".165"/>
<path d="m100.6 234.43-0.43099 0.60667 0.72809 0.16568z" fill="#fffffc" stroke-width="0"/>
<path d="m99.453 236.36 4.57e-4 0.45928 0.39412-0.0433-0.2299-0.76059z" fill="#fffffc" stroke-width="0"/>
</g>
</svg>
