<?xml version="1.0" encoding="UTF-8" standalone="no"?>
<svg
   xmlns:dc="http://purl.org/dc/elements/1.1/"
   xmlns:cc="http://creativecommons.org/ns#"
   xmlns:rdf="http://www.w3.org/1999/02/22-rdf-syntax-ns#"
   xmlns:svg="http://www.w3.org/2000/svg"
   xmlns="http://www.w3.org/2000/svg"
   width="7.7092166mm"
   height="7.960012mm"
   viewBox="0 0 7.7092166 7.960012"
   version="1.1"
   id="svg8">
  <defs
     id="defs2" />
  <metadata
     id="metadata5">
    <rdf:RDF>
      <cc:Work
         rdf:about="">
        <dc:format>image/svg+xml</dc:format>
        <dc:type
           rdf:resource="http://purl.org/dc/dcmitype/StillImage" />
        <dc:title></dc:title>
      </cc:Work>
    </rdf:RDF>
  </metadata>
  <g
     id="layer1"
     transform="translate(-98.831125,-232.70422)">
    <path
       style="fill:#000000;fill-opacity:1;stroke:#000000;stroke-width:0.165;stroke-linecap:butt;stroke-linejoin:miter;stroke-miterlimit:4;stroke-dasharray:none;stroke-opacity:1"
       d="m 101.64979,239.70546 -1.748334,0.0571 -0.749181,0.78681 7.191825,0.0315 -0.67392,-0.6925 -1.93007,-0.0214 0.0865,-0.75928 1.16858,0.0881 -0.12389,-3.12409 -0.94515,-1.68969 -1.5716,-0.94617 -0.42426,0.064 0.0279,-0.60179 -0.73037,0.65943 -0.79597,-0.65721 -0.17786,0.95451 -1.339899,2.03423 0.02469,1.31412 1.117109,0.38678 2.31142,-2.38785 -0.15776,1.52292 -1.53376,1.78594 -0.0274,0.69206 1.17728,-0.046 z"
       id="path24" />
    <path
       style="fill:#fffffc;fill-opacity:1;stroke:#000000;stroke-width:0;stroke-linecap:butt;stroke-linejoin:miter;stroke-miterlimit:4;stroke-dasharray:none;stroke-opacity:1"
       d="m 100.60026,234.42732 -0.43099,0.60667 0.72809,0.16568 z"
       id="path26" />
    <path
       style="fill:#fffffc;fill-opacity:1;stroke:#000000;stroke-width:0;stroke-linecap:butt;stroke-linejoin:miter;stroke-miterlimit:4;stroke-dasharray:none;stroke-opacity:1"
       d="m 99.453146,236.35785 4.57e-4,0.45928 0.394125,-0.0433 -0.229901,-0.76059 z"
       id="path28" />
  </g>
</svg>
