<?xml version="1.0" encoding="UTF-8"?>
<svg width="7.2038mm" height="8.3687mm" version="1.1" viewBox="0 0 7.2038 8.3687" xmlns="http://www.w3.org/2000/svg" xmlns:cc="http://creativecommons.org/ns#" xmlns:dc="http://purl.org/dc/elements/1.1/" xmlns:rdf="http://www.w3.org/1999/02/22-rdf-syntax-ns#">
<metadata>
<rdf:RDF>
<cc:Work rdf:about="">
<dc:format>image/svg+xml</dc:format>
<dc:type rdf:resource="http://purl.org/dc/dcmitype/StillImage"/>
<dc:title/>
</cc:Work>
</rdf:RDF>
</metadata>
<g transform="translate(-110.57 -148.83)">
<path d="m112.35 151.25-1.5455 2.6107-0.0914 0.94352 0.48852 0.61126 0.91856-0.0645 2.4894-2.5428-0.2115 1.6941-1.534 1.777-0.15223 0.78891 4.9341-5.3e-4 -0.031-2.2263-0.21215-1.1323-0.82992-1.702-0.89507-0.76944-0.0385-1.9905-0.16774 0.64743-0.51208-0.031-0.73982-0.66586-0.78945-0.0295-0.68808 0.76665-0.66061-0.84517-0.29478 0.6901 0.26583 0.77988z" stroke="#000" stroke-width=".26458px"/>
<path d="m113.76 149.64-0.42449 0.44883 0.55814 0.49394 0.48117-0.41054z" fill="#fff" stroke-width="0"/>
<path d="m112.74 151.73-0.58277 0.56818 0.66128 0.0527z" fill="#fff" stroke-width="0"/>
<path d="m111.31 153.96-0.12049 0.67985 0.42101-0.0538 0.10048-0.57981z" fill="#fff" stroke-width="0"/>
<path d="m112.19 151.21 3.5695-0.0662-5.3e-4 -0.16351-3.6559 0.0461z" fill="#fffffb" stroke-width="0"/>
</g>
</svg>
