<?xml version="1.0" encoding="UTF-8" standalone="no"?>
<svg
   xmlns:dc="http://purl.org/dc/elements/1.1/"
   xmlns:cc="http://creativecommons.org/ns#"
   xmlns:rdf="http://www.w3.org/1999/02/22-rdf-syntax-ns#"
   xmlns:svg="http://www.w3.org/2000/svg"
   xmlns="http://www.w3.org/2000/svg"
   width="7.2038465mm"
   height="8.3687134mm"
   viewBox="0 0 7.2038465 8.3687134"
   version="1.1"
   id="svg8">
  <defs
     id="defs2" />
  <metadata
     id="metadata5">
    <rdf:RDF>
      <cc:Work
         rdf:about="">
        <dc:format>image/svg+xml</dc:format>
        <dc:type
           rdf:resource="http://purl.org/dc/dcmitype/StillImage" />
        <dc:title></dc:title>
      </cc:Work>
    </rdf:RDF>
  </metadata>
  <g
     id="layer1"
     transform="translate(-110.57162,-148.82817)">
    <path
       style="fill:#000000;fill-opacity:1;stroke:#000000;stroke-width:0.264583px;stroke-linecap:butt;stroke-linejoin:miter;stroke-opacity:1"
       d="m 112.34537,151.24632 -1.5455,2.61067 -0.0914,0.94352 0.48852,0.61126 0.91856,-0.0645 2.48936,-2.54276 -0.2115,1.69414 -1.53398,1.77701 -0.15223,0.78891 4.93412,-5.3e-4 -0.031,-2.22627 -0.21215,-1.1323 -0.82992,-1.70197 -0.89507,-0.76944 -0.0385,-1.99053 -0.16774,0.64743 -0.51208,-0.031 -0.73982,-0.66586 -0.78945,-0.0295 -0.68808,0.76665 -0.66061,-0.84517 -0.29478,0.6901 0.26583,0.77988 z"
       id="path24" />
    <path
       style="fill:#ffffff;fill-opacity:1;stroke:#000000;stroke-width:0;stroke-linecap:butt;stroke-linejoin:miter;stroke-miterlimit:4;stroke-dasharray:none;stroke-opacity:1"
       d="m 113.7565,149.64353 -0.42449,0.44883 0.55814,0.49394 0.48117,-0.41054 z"
       id="path26" />
    <path
       style="fill:#ffffff;fill-opacity:1;stroke:#000000;stroke-width:0;stroke-linecap:butt;stroke-linejoin:miter;stroke-miterlimit:4;stroke-dasharray:none;stroke-opacity:1"
       d="m 112.73821,151.73153 -0.58277,0.56818 0.66128,0.0527 z"
       id="path28" />
    <path
       style="fill:#ffffff;fill-opacity:1;stroke:#000000;stroke-width:0;stroke-linecap:butt;stroke-linejoin:miter;stroke-miterlimit:4;stroke-dasharray:none;stroke-opacity:1"
       d="m 111.31107,153.96208 -0.12049,0.67985 0.42101,-0.0538 0.10048,-0.57981 z"
       id="path30" />
    <path
       style="fill:#fffffb;fill-opacity:1;stroke:#000000;stroke-width:0;stroke-linecap:butt;stroke-linejoin:miter;stroke-miterlimit:4;stroke-dasharray:none;stroke-opacity:1"
       d="m 112.19001,151.20654 3.56949,-0.0662 -5.3e-4,-0.16351 -3.65592,0.0461 z"
       id="path855" />
  </g>
</svg>
