<?xml version="1.0" encoding="UTF-8" standalone="no"?>
<svg
   xmlns:dc="http://purl.org/dc/elements/1.1/"
   xmlns:cc="http://creativecommons.org/ns#"
   xmlns:rdf="http://www.w3.org/1999/02/22-rdf-syntax-ns#"
   xmlns:svg="http://www.w3.org/2000/svg"
   xmlns="http://www.w3.org/2000/svg"
   xmlns:sodipodi="http://sodipodi.sourceforge.net/DTD/sodipodi-0.dtd"
   xmlns:inkscape="http://www.inkscape.org/namespaces/inkscape"
   width="7.2982283mm"
   height="9.5290174mm"
   viewBox="0 0 7.2982283 9.5290174"
   version="1.1"
   id="svg8"
   inkscape:version="1.0.2 (e86c870879, 2021-01-15)"
   sodipodi:docname="Duchess.svg">
  <defs
     id="defs2" />
  <sodipodi:namedview
     id="base"
     pagecolor="#ffffff"
     bordercolor="#666666"
     borderopacity="1.0"
     inkscape:pageopacity="0.0"
     inkscape:pageshadow="2"
     inkscape:zoom="9.8716828"
     inkscape:cx="1.5516445"
     inkscape:cy="16.22859"
     inkscape:document-units="mm"
     inkscape:current-layer="layer1"
     inkscape:document-rotation="0"
     showgrid="false"
     inkscape:window-width="1352"
     inkscape:window-height="736"
     inkscape:window-x="5"
     inkscape:window-y="23"
     inkscape:window-maximized="0" />
  <metadata
     id="metadata5">
    <rdf:RDF>
      <cc:Work
         rdf:about="">
        <dc:format>image/svg+xml</dc:format>
        <dc:type
           rdf:resource="http://purl.org/dc/dcmitype/StillImage" />
        <dc:title></dc:title>
      </cc:Work>
    </rdf:RDF>
  </metadata>
  <g
     inkscape:label="Layer 1"
     inkscape:groupmode="layer"
     id="layer1"
     transform="translate(-102.99725,-142.28219)">
    <path
       style="fill:#000000;fill-opacity:1;stroke:#000000;stroke-width:0.264583px;stroke-linecap:butt;stroke-linejoin:miter;stroke-opacity:1"
       d="m 103.54936,151.66594 6.1135,0.0127 -0.005,-0.84451 -0.78623,0.0555 0.0262,-0.94537 -0.33017,0.0532 0.009,-3.44092 0.60716,-0.48225 -0.28315,-0.28601 0.54534,-1.8972 0.71374,0.0591 0.003,0.5873 -1.91308,0.85306 0.23521,-2.39008 0.65797,0.12302 -0.0896,0.58395 -1.52417,1.0082 -0.16585,-2.15621 0.73466,0.0476 -0.21787,0.63771 -1.2222,1.50488 -1.51463,-1.88578 0.46558,-0.39559 0.38736,0.45133 -0.32891,2.09248 -1.55419,-1.4887 0.30987,-0.53398 0.45661,0.47552 -0.0222,1.79301 -1.7182,-0.81478 0.0988,-0.89276 0.66161,0.40847 0.36001,1.82034 -0.3741,0.32421 0.43171,0.23337 0.31734,0.26755 0.0172,3.45077 -0.36871,-0.007 -0.0122,0.80807 -0.76637,0.0232 c 0.022,0.26171 0.0451,0.52397 0.045,0.7866 z"
       id="path24"
       sodipodi:nodetypes="ccccccccccccccccccccccccccccccccccccccccc" />
    <path
       style="fill:none;stroke:#ffffff;stroke-width:0.3;stroke-linecap:square;stroke-linejoin:miter;stroke-opacity:1;stroke-miterlimit:4;stroke-dasharray:none"
       d="m 104.63448,146.6043 3.94218,-0.0478"
       id="path849" />
    <path
       style="fill:none;stroke:#ffffff;stroke-width:0.3;stroke-linecap:square;stroke-linejoin:miter;stroke-opacity:1;stroke-miterlimit:4;stroke-dasharray:none"
       d="m 104.65168,150.05507 3.91598,-0.0576"
       id="path851" />
    <path
       style="fill:none;stroke:#000000;stroke-width:0.3;stroke-linecap:square;stroke-linejoin:miter;stroke-opacity:1;stroke-miterlimit:4;stroke-dasharray:none"
       d="m 103.5044,150.87934 6.15346,-0.0452"
       id="path853" />
  </g>
</svg>
