<?xml version="1.0" encoding="UTF-8"?>
<svg width="7.2982mm" height="9.529mm" version="1.1" viewBox="0 0 7.2982 9.529" xmlns="http://www.w3.org/2000/svg" xmlns:cc="http://creativecommons.org/ns#" xmlns:dc="http://purl.org/dc/elements/1.1/" xmlns:rdf="http://www.w3.org/1999/02/22-rdf-syntax-ns#">
<metadata>
<rdf:RDF>
<cc:Work rdf:about="">
<dc:format>image/svg+xml</dc:format>
<dc:type rdf:resource="http://purl.org/dc/dcmitype/StillImage"/>
<dc:title/>
</cc:Work>
</rdf:RDF>
</metadata>
<g transform="translate(-103 -142.28)">
<path d="m103.55 151.67 6.1135 0.0127-5e-3 -0.84451-0.78623 0.0555 0.0262-0.94537-0.33017 0.0532 9e-3 -3.4409 0.60716-0.48225-0.28315-0.28601 0.54534-1.8972 0.71374 0.0591 3e-3 0.5873-1.9131 0.85306 0.23521-2.3901 0.65797 0.12302-0.0896 0.58395-1.5242 1.0082-0.16585-2.1562 0.73466 0.0476-0.21787 0.63771-1.2222 1.5049-1.5146-1.8858 0.46558-0.39559 0.38736 0.45133-0.32891 2.0925-1.5542-1.4887 0.30987-0.53398 0.45661 0.47552-0.0222 1.793-1.7182-0.81478 0.0988-0.89276 0.66161 0.40847 0.36001 1.8203-0.3741 0.32421 0.43171 0.23337 0.31734 0.26755 0.0172 3.4508-0.36871-7e-3 -0.0122 0.80807-0.76637 0.0232c0.022 0.26171 0.0451 0.52397 0.045 0.7866z" stroke="#000" stroke-width=".26458px"/>
<path d="m104.63 146.6 3.9422-0.0478" fill="none" stroke="#fff" stroke-linecap="square" stroke-width=".3"/>
<path d="m104.65 150.06 3.916-0.0576" fill="none" stroke="#fff" stroke-linecap="square" stroke-width=".3"/>
<path d="m103.5 150.88 6.1535-0.0452" fill="none" stroke="#000" stroke-linecap="square" stroke-width=".3"/>
</g>
</svg>
