<?xml version="1.0" encoding="UTF-8" standalone="no"?>
<svg
   xmlns:dc="http://purl.org/dc/elements/1.1/"
   xmlns:cc="http://creativecommons.org/ns#"
   xmlns:rdf="http://www.w3.org/1999/02/22-rdf-syntax-ns#"
   xmlns:svg="http://www.w3.org/2000/svg"
   xmlns="http://www.w3.org/2000/svg"
   xmlns:sodipodi="http://sodipodi.sourceforge.net/DTD/sodipodi-0.dtd"
   xmlns:inkscape="http://www.inkscape.org/namespaces/inkscape"
   width="8.8036127mm"
   height="8.227828mm"
   viewBox="0 0 8.8036127 8.227828"
   version="1.1"
   id="svg8"
   inkscape:version="1.0.2 (e86c870879, 2021-01-15)"
   sodipodi:docname="Eagle.svg">
  <defs
     id="defs2" />
  <sodipodi:namedview
     id="base"
     pagecolor="#ffffff"
     bordercolor="#666666"
     borderopacity="1.0"
     inkscape:pageopacity="0.0"
     inkscape:pageshadow="2"
     inkscape:zoom="9.1352432"
     inkscape:cx="4.5026857"
     inkscape:cy="8.3439729"
     inkscape:document-units="mm"
     inkscape:current-layer="layer1"
     inkscape:document-rotation="0"
     showgrid="false"
     inkscape:window-width="1352"
     inkscape:window-height="736"
     inkscape:window-x="5"
     inkscape:window-y="23"
     inkscape:window-maximized="0" />
  <metadata
     id="metadata5">
    <rdf:RDF>
      <cc:Work
         rdf:about="">
        <dc:format>image/svg+xml</dc:format>
        <dc:type
           rdf:resource="http://purl.org/dc/dcmitype/StillImage" />
        <dc:title></dc:title>
      </cc:Work>
    </rdf:RDF>
  </metadata>
  <g
     inkscape:label="Layer 1"
     inkscape:groupmode="layer"
     id="layer1"
     transform="translate(-79.504595,-67.799809)">
    <path
       style="fill:#000000;fill-opacity:1;stroke:#000000;stroke-width:0.264583px;stroke-linecap:butt;stroke-linejoin:miter;stroke-opacity:1"
       d="m 81.237592,74.743695 0.99324,0.09779 -0.162039,0.726906 1.051785,-0.669536 0.700032,0.801385 0.679466,-0.769977 0.544727,0.738968 0.483462,-0.562157 0.616884,0.543163 0.40917,-0.816639 0.461762,0.842494 0.228835,-0.844651 0.840986,0.572829 0.08983,-2.605389 -0.144063,-1.777376 -0.938977,-1.624579 -1.495597,-1.101111 -0.797208,-0.362087 -1.012436,0.05723 -0.43284,0.125275 -0.570127,0.384894 -0.36612,0.333696 -1.396971,-0.05134 -1.384212,0.963744 0.0059,1.387952 c 0.394265,-0.527825 0.615276,-0.759789 1.332399,-0.863452 l 1.009849,0.444775 0.507238,0.328462 -0.01225,0.929436 -0.01664,1.380672 -0.407591,0.565127 z"
       id="path24"
       sodipodi:nodetypes="cccccccccccccccccccccccccccccccc" />
    <path
       style="fill:#ffffff;fill-opacity:1;stroke:#000000;stroke-width:0;stroke-linecap:butt;stroke-linejoin:miter;stroke-miterlimit:4;stroke-dasharray:none;stroke-opacity:1"
       d="m 84.07755,69.173288 -0.607336,0.03175 0.05355,0.507269 0.757452,0.08155 1.124923,-0.644367 z"
       id="path26" />
  </g>
</svg>
