<?xml version="1.0" encoding="UTF-8"?>
<svg width="8.8036mm" height="8.2278mm" version="1.1" viewBox="0 0 8.8036 8.2278" xmlns="http://www.w3.org/2000/svg" xmlns:cc="http://creativecommons.org/ns#" xmlns:dc="http://purl.org/dc/elements/1.1/" xmlns:rdf="http://www.w3.org/1999/02/22-rdf-syntax-ns#">
<metadata>
<rdf:RDF>
<cc:Work rdf:about="">
<dc:format>image/svg+xml</dc:format>
<dc:type rdf:resource="http://purl.org/dc/dcmitype/StillImage"/>
<dc:title/>
</cc:Work>
</rdf:RDF>
</metadata>
<g transform="translate(-79.505 -67.8)">
<path d="m81.238 74.744 0.99324 0.09779-0.16204 0.72691 1.0518-0.66954 0.70003 0.80138 0.67947-0.76998 0.54473 0.73897 0.48346-0.56216 0.61688 0.54316 0.40917-0.81664 0.46176 0.84249 0.22884-0.84465 0.84099 0.57283 0.08983-2.6054-0.14406-1.7774-0.93898-1.6246-1.4956-1.1011-0.79721-0.36209-1.0124 0.05723-0.43284 0.12528-0.57013 0.38489-0.36612 0.3337-1.397-0.05134-1.3842 0.96374 0.0059 1.388c0.39426-0.52782 0.61528-0.75979 1.3324-0.86345l1.0098 0.44478 0.50724 0.32846-0.01225 0.92944-0.01664 1.3807-0.40759 0.56513z" stroke="#000" stroke-width=".26458px"/>
<path d="m84.078 69.173-0.60734 0.03175 0.05355 0.50727 0.75745 0.08155 1.1249-0.64437z" fill="#fff" stroke-width="0"/>
</g>
</svg>
