<?xml version="1.0" encoding="UTF-8"?>
<svg width="7.97mm" height="9.2118mm" version="1.1" viewBox="0 0 7.97 9.2118" xmlns="http://www.w3.org/2000/svg" xmlns:cc="http://creativecommons.org/ns#" xmlns:dc="http://purl.org/dc/elements/1.1/" xmlns:rdf="http://www.w3.org/1999/02/22-rdf-syntax-ns#">
<metadata>
<rdf:RDF>
<cc:Work rdf:about="">
<dc:format>image/svg+xml</dc:format>
<dc:type rdf:resource="http://purl.org/dc/dcmitype/StillImage"/>
<dc:title/>
</cc:Work>
</rdf:RDF>
</metadata>
<g transform="translate(-56.959 -144.87)">
<path d="m60.132 145.71-0.62088 0.83321 0.80051 0.57698 1.9807-0.95439 0.52153 0.55493-0.08868 0.72957-0.59993 0.59896-1.0611 0.20406-0.75107 0.0779-0.93488 0.93284-2.1499 0.0403-0.13449 2.1233 0.78138 1.593 1.1608 0.92376 0.98597-0.0603 0.8367-1.0788 0.65486 0.36419 0.73744 0.0124 1.0214-0.61765 0.47009-1.4632 0.91741-0.44908-0.76818-0.49054 0.75898-1.6131-0.18317-2.2258-1.0774-1.1643-1.1578-0.15393-1.4088 0.70817z" stroke="#000" stroke-width=".26458px"/>
<path d="m60.808 148.86-0.37487 0.5547 0.73082 0.01z" fill="#fff" stroke-width="0"/>
</g>
</svg>
