<?xml version="1.0" encoding="UTF-8" standalone="no"?>
<svg
   xmlns:dc="http://purl.org/dc/elements/1.1/"
   xmlns:cc="http://creativecommons.org/ns#"
   xmlns:rdf="http://www.w3.org/1999/02/22-rdf-syntax-ns#"
   xmlns:svg="http://www.w3.org/2000/svg"
   xmlns="http://www.w3.org/2000/svg"
   xmlns:sodipodi="http://sodipodi.sourceforge.net/DTD/sodipodi-0.dtd"
   xmlns:inkscape="http://www.inkscape.org/namespaces/inkscape"
   width="7.4256058mm"
   height="9.3396864mm"
   viewBox="0 0 7.4256058 9.3396864"
   version="1.1"
   id="svg8"
   inkscape:version="1.0.2 (e86c870879, 2021-01-15)"
   sodipodi:docname="Giraffe.svg">
  <defs
     id="defs2" />
  <sodipodi:namedview
     id="base"
     pagecolor="#ffffff"
     bordercolor="#666666"
     borderopacity="1.0"
     inkscape:pageopacity="0.0"
     inkscape:pageshadow="2"
     inkscape:zoom="9.7732768"
     inkscape:cx="-0.28352907"
     inkscape:cy="20.751569"
     inkscape:document-units="mm"
     inkscape:current-layer="layer1"
     inkscape:document-rotation="0"
     showgrid="false"
     inkscape:window-width="1352"
     inkscape:window-height="736"
     inkscape:window-x="5"
     inkscape:window-y="23"
     inkscape:window-maximized="0" />
  <metadata
     id="metadata5">
    <rdf:RDF>
      <cc:Work
         rdf:about="">
        <dc:format>image/svg+xml</dc:format>
        <dc:type
           rdf:resource="http://purl.org/dc/dcmitype/StillImage" />
        <dc:title></dc:title>
      </cc:Work>
    </rdf:RDF>
  </metadata>
  <g
     inkscape:label="Layer 1"
     inkscape:groupmode="layer"
     id="layer1"
     transform="translate(-111.67793,-149.15208)">
    <path
       style="fill:#000000;fill-opacity:1;stroke:#000000;stroke-width:0.264583px;stroke-linecap:butt;stroke-linejoin:miter;stroke-opacity:1"
       d="m 118.89395,158.26071 -2.44425,-4.96518 0.81283,-0.57375 0.4122,-0.3582 0.006,-0.98798 -1.04483,-0.0298 -0.55336,0.83537 0.0134,-1.68364 0.46222,-0.0433 -0.046,-0.75946 -0.47302,-0.38478 -0.43411,0.22991 -0.0208,0.73093 -0.2969,0.64359 -0.82648,-0.0211 -0.14942,-0.38287 0.0597,-1.04553 -0.46245,-0.15793 -0.33117,0.26328 0.057,1.84399 -0.21096,0.25668 -1.33932,-0.55244 -0.26275,0.23414 0.12474,0.67954 0.87338,0.53924 -0.009,0.89475 0.37053,0.23045 -0.20736,0.92016 -0.44925,1.29936 0.46217,0.95236 0.57271,-0.31412 1.45719,-1.15587 0.0774,2.14347 0.4966,0.8153 z"
       id="path24" />
    <path
       style="fill:#ffffff;fill-opacity:1;stroke:#000000;stroke-width:0;stroke-linecap:butt;stroke-linejoin:miter;stroke-miterlimit:4;stroke-dasharray:none;stroke-opacity:1"
       d="m 113.50586,155.38162 -0.25335,0.11907 -0.0261,0.35245 0.33381,-0.11768 z"
       id="path26"
       sodipodi:nodetypes="ccccc" />
    <path
       style="fill:#ffffff;fill-opacity:1;stroke:#000000;stroke-width:0;stroke-linecap:butt;stroke-linejoin:miter;stroke-miterlimit:4;stroke-dasharray:none;stroke-opacity:1"
       d="m 115.43914,152.243 -0.45489,0.21022 -0.0468,0.62222 0.59936,-0.20775 z"
       id="path26-9"
       sodipodi:nodetypes="ccccc" />
  </g>
</svg>
