<?xml version="1.0" encoding="UTF-8"?>
<svg width="7.4256mm" height="9.3397mm" version="1.1" viewBox="0 0 7.4256 9.3397" xmlns="http://www.w3.org/2000/svg" xmlns:cc="http://creativecommons.org/ns#" xmlns:dc="http://purl.org/dc/elements/1.1/" xmlns:rdf="http://www.w3.org/1999/02/22-rdf-syntax-ns#">
<metadata>
<rdf:RDF>
<cc:Work rdf:about="">
<dc:format>image/svg+xml</dc:format>
<dc:type rdf:resource="http://purl.org/dc/dcmitype/StillImage"/>
<dc:title/>
</cc:Work>
</rdf:RDF>
</metadata>
<g transform="translate(-111.68 -149.15)">
<path d="m118.89 158.26-2.4442-4.9652 0.81283-0.57375 0.4122-0.3582 6e-3 -0.98798-1.0448-0.0298-0.55336 0.83537 0.0134-1.6836 0.46222-0.0433-0.046-0.75946-0.47302-0.38478-0.43411 0.22991-0.0208 0.73093-0.2969 0.64359-0.82648-0.0211-0.14942-0.38287 0.0597-1.0455-0.46245-0.15793-0.33117 0.26328 0.057 1.844-0.21096 0.25668-1.3393-0.55244-0.26275 0.23414 0.12474 0.67954 0.87338 0.53924-9e-3 0.89475 0.37053 0.23045-0.20736 0.92016-0.44925 1.2994 0.46217 0.95236 0.57271-0.31412 1.4572-1.1559 0.0774 2.1435 0.4966 0.8153z" stroke="#000" stroke-width=".26458px"/>
<path d="m113.51 155.38-0.25335 0.11907-0.0261 0.35245 0.33381-0.11768z" fill="#fff" stroke-width="0"/>
<path d="m115.44 152.24-0.45489 0.21022-0.0468 0.62222 0.59936-0.20775z" fill="#fff" stroke-width="0"/>
</g>
</svg>
