<?xml version="1.0" encoding="UTF-8"?>
<svg width="9.7879mm" height="8.9977mm" version="1.1" viewBox="0 0 9.7879 8.9977" xmlns="http://www.w3.org/2000/svg" xmlns:cc="http://creativecommons.org/ns#" xmlns:dc="http://purl.org/dc/elements/1.1/" xmlns:rdf="http://www.w3.org/1999/02/22-rdf-syntax-ns#">
<metadata>
<rdf:RDF>
<cc:Work rdf:about="">
<dc:format>image/svg+xml</dc:format>
<dc:type rdf:resource="http://purl.org/dc/dcmitype/StillImage"/>
<dc:title/>
</cc:Work>
</rdf:RDF>
</metadata>
<g transform="translate(-92.849 -181.69)">
<path d="m100.68 183.39-2.0717-1.5688-2.8175 0.0699-1.2151 0.44119-1.3047 1.5952 1.174-0.45312-1.0687 1.2873-0.15063 1.4239 1.0731-1.0828-0.5275 2.3531 0.67251 1.1556 1.4349 0.97507 0.69376-0.68663 1.4713 1.5958 1.1556-1.1307 0.61804 0.42489 0.33424-0.29138s-0.022-1.883-0.093-1.7284c-0.07096 0.15461-0.84988 0.46931-0.84988 0.46931l-0.38602-0.82245 1.2954-1.4495 0.93229 0.99849 1.3764-1.1271-1.528-1.1748z" stroke="#000" stroke-width=".26458px"/>
<path d="m99.333 183.65-0.13393 0.95833 0.93551 2e-3 -0.11545-0.86532z" fill="#fff" stroke-width="0"/>
</g>
</svg>
