<?xml version="1.0" encoding="UTF-8" standalone="no"?>
<svg
   xmlns:dc="http://purl.org/dc/elements/1.1/"
   xmlns:cc="http://creativecommons.org/ns#"
   xmlns:rdf="http://www.w3.org/1999/02/22-rdf-syntax-ns#"
   xmlns:svg="http://www.w3.org/2000/svg"
   xmlns="http://www.w3.org/2000/svg"
   xmlns:sodipodi="http://sodipodi.sourceforge.net/DTD/sodipodi-0.dtd"
   xmlns:inkscape="http://www.inkscape.org/namespaces/inkscape"
   width="9.7879086mm"
   height="8.9977007mm"
   viewBox="0 0 9.7879086 8.9977007"
   version="1.1"
   id="svg8"
   inkscape:version="1.0.2 (e86c870879, 2021-01-15)"
   sodipodi:docname="Lion.svg">
  <defs
     id="defs2" />
  <sodipodi:namedview
     id="base"
     pagecolor="#ffffff"
     bordercolor="#666666"
     borderopacity="1.0"
     inkscape:pageopacity="0.0"
     inkscape:pageshadow="2"
     inkscape:zoom="7.2992105"
     inkscape:cx="13.979673"
     inkscape:cy="18.763483"
     inkscape:document-units="mm"
     inkscape:current-layer="layer1"
     inkscape:document-rotation="0"
     showgrid="false"
     inkscape:window-width="805"
     inkscape:window-height="736"
     inkscape:window-x="5"
     inkscape:window-y="23"
     inkscape:window-maximized="0" />
  <metadata
     id="metadata5">
    <rdf:RDF>
      <cc:Work
         rdf:about="">
        <dc:format>image/svg+xml</dc:format>
        <dc:type
           rdf:resource="http://purl.org/dc/dcmitype/StillImage" />
        <dc:title />
      </cc:Work>
    </rdf:RDF>
  </metadata>
  <g
     inkscape:label="Layer 1"
     inkscape:groupmode="layer"
     id="layer1"
     transform="translate(-92.848751,-181.68692)">
    <path
       style="fill:#000000;fill-opacity:1;stroke:#000000;stroke-width:0.264583px;stroke-linecap:butt;stroke-linejoin:miter;stroke-opacity:1"
       d="m 100.67698,183.38912 -2.071723,-1.5688 -2.817453,0.0699 -1.21508,0.44119 -1.304727,1.59516 1.173983,-0.45312 -1.068737,1.28726 -0.15063,1.42392 1.073132,-1.08284 -0.527498,2.35311 0.67251,1.15564 1.434934,0.97507 0.693758,-0.68663 1.471274,1.59578 1.155637,-1.13068 0.61804,0.42489 0.33424,-0.29138 c 0,0 -0.022,-1.88305 -0.093,-1.72845 -0.07096,0.15461 -0.84988,0.46931 -0.84988,0.46931 l -0.386016,-0.82245 1.295396,-1.44947 0.93229,0.99849 1.37643,-1.12706 -1.52805,-1.17483 z"
       id="path24" />
    <path
       style="fill:#ffffff;fill-opacity:1;stroke:#000000;stroke-width:0;stroke-linecap:butt;stroke-linejoin:miter;stroke-miterlimit:4;stroke-dasharray:none;stroke-opacity:1"
       d="m 99.332514,183.64734 -0.133932,0.95833 0.935508,0.002 -0.11545,-0.86532 z"
       id="path26" />
  </g>
</svg>
