<?xml version="1.0" encoding="UTF-8"?>
<svg width="6.6375mm" height="8.4103mm" version="1.1" viewBox="0 0 6.6375 8.4103" xmlns="http://www.w3.org/2000/svg" xmlns:cc="http://creativecommons.org/ns#" xmlns:dc="http://purl.org/dc/elements/1.1/" xmlns:rdf="http://www.w3.org/1999/02/22-rdf-syntax-ns#">
<metadata>
<rdf:RDF>
<cc:Work rdf:about="">
<dc:format>image/svg+xml</dc:format>
<dc:type rdf:resource="http://purl.org/dc/dcmitype/StillImage"/>
<dc:title/>
</cc:Work>
</rdf:RDF>
</metadata>
<g transform="translate(-83.076 -148.7)">
<path d="m84.726 155.44 0.18116-1.1798 1.2658-1.2273 0.30655-1.5867-2.1082 2.3291-1.1354-0.25114-0.07538-1.2428 1.3815-2.1379 0.01556-0.94959 0.61788 0.45685 0.44524-0.055 0.28905-0.71241 0.41881 0.73714 0.9936 0.4074 0.80421 0.56119 0.5737 1.0862 0.33639 1.026 0.19835 2.7977 0.36738 0.29484 0.0272 1.1001-0.89531 4e-3 0.01363-0.53007-1.2796 0.0823-0.02088 0.44662-0.91964-0.0674 0.03269-0.38065-1.179 0.013-0.0522 0.5469-0.85888-0.14623-0.03874-1.1371z" stroke="#000" stroke-width=".165"/>
<path d="m85.047 150.55-0.50788 0.48511 0.45524 0.22079z" fill="#fff" stroke-width="0"/>
<path d="m83.459 152.61 0.39683 0.52288 0.28477-0.35117-0.44865-0.42463z" fill="#fff" stroke-width="0"/>
</g>
</svg>
