<?xml version="1.0" encoding="UTF-8" standalone="no"?>
<svg
   xmlns:dc="http://purl.org/dc/elements/1.1/"
   xmlns:cc="http://creativecommons.org/ns#"
   xmlns:rdf="http://www.w3.org/1999/02/22-rdf-syntax-ns#"
   xmlns:svg="http://www.w3.org/2000/svg"
   xmlns="http://www.w3.org/2000/svg"
   xmlns:sodipodi="http://sodipodi.sourceforge.net/DTD/sodipodi-0.dtd"
   xmlns:inkscape="http://www.inkscape.org/namespaces/inkscape"
   width="6.6374588mm"
   height="8.4103413mm"
   viewBox="0 0 6.6374588 8.4103413"
   version="1.1"
   id="svg8"
   inkscape:version="1.0.2 (e86c870879, 2021-01-15)"
   sodipodi:docname="Marshal.svg">
  <defs
     id="defs2" />
  <sodipodi:namedview
     id="base"
     pagecolor="#ffffff"
     bordercolor="#666666"
     borderopacity="1.0"
     inkscape:pageopacity="0.0"
     inkscape:pageshadow="2"
     inkscape:zoom="8.9324551"
     inkscape:cx="-1.0869777"
     inkscape:cy="27.896902"
     inkscape:document-units="mm"
     inkscape:current-layer="layer1"
     inkscape:document-rotation="0"
     showgrid="false"
     inkscape:snap-global="false"
     inkscape:window-width="1352"
     inkscape:window-height="736"
     inkscape:window-x="5"
     inkscape:window-y="23"
     inkscape:window-maximized="0" />
  <metadata
     id="metadata5">
    <rdf:RDF>
      <cc:Work
         rdf:about="">
        <dc:format>image/svg+xml</dc:format>
        <dc:type
           rdf:resource="http://purl.org/dc/dcmitype/StillImage" />
        <dc:title></dc:title>
      </cc:Work>
    </rdf:RDF>
  </metadata>
  <g
     inkscape:label="Layer 1"
     inkscape:groupmode="layer"
     id="layer1"
     transform="translate(-83.076113,-148.69543)">
    <path
       style="fill:#000000;fill-opacity:1;stroke:#000000;stroke-width:0.165;stroke-linecap:butt;stroke-linejoin:miter;stroke-miterlimit:4;stroke-dasharray:none;stroke-opacity:1"
       d="m 84.725546,155.44101 0.181158,-1.17981 1.265777,-1.22728 0.306551,-1.58673 -2.108184,2.32907 -1.135367,-0.25114 -0.07538,-1.24281 1.381543,-2.13788 0.01556,-0.94959 0.617884,0.45685 0.445244,-0.055 0.289049,-0.71241 0.418812,0.73714 0.9936,0.4074 0.804209,0.56119 0.573696,1.08624 0.336389,1.02597 0.19835,2.79768 0.367379,0.29484 0.0272,1.1001 -0.895313,0.004 0.01363,-0.53007 -1.279644,0.0823 -0.02088,0.44662 -0.919644,-0.0674 0.03269,-0.38065 -1.178955,0.013 -0.0522,0.5469 -0.858882,-0.14623 -0.03874,-1.1371 z"
       id="path24" />
    <path
       style="fill:#ffffff;fill-opacity:1;stroke:#000000;stroke-width:0;stroke-linecap:butt;stroke-linejoin:miter;stroke-miterlimit:4;stroke-dasharray:none;stroke-opacity:1"
       d="m 85.04725,150.55243 -0.507875,0.48511 0.455239,0.22079 z"
       id="path26" />
    <path
       style="fill:#ffffff;fill-opacity:1;stroke:#000000;stroke-width:0;stroke-linecap:butt;stroke-linejoin:miter;stroke-miterlimit:4;stroke-dasharray:none;stroke-opacity:1"
       d="m 83.458943,152.60926 0.39683,0.52288 0.284766,-0.35117 -0.448649,-0.42463 z"
       id="path853" />
  </g>
</svg>
