<?xml version="1.0" encoding="UTF-8" standalone="no"?>
<svg
   xmlns:dc="http://purl.org/dc/elements/1.1/"
   xmlns:cc="http://creativecommons.org/ns#"
   xmlns:rdf="http://www.w3.org/1999/02/22-rdf-syntax-ns#"
   xmlns:svg="http://www.w3.org/2000/svg"
   xmlns="http://www.w3.org/2000/svg"
   xmlns:sodipodi="http://sodipodi.sourceforge.net/DTD/sodipodi-0.dtd"
   xmlns:inkscape="http://www.inkscape.org/namespaces/inkscape"
   width="7.0626812mm"
   height="7.6185083mm"
   viewBox="0 0 7.0626812 7.6185083"
   version="1.1"
   id="svg8"
   inkscape:version="1.0.2 (e86c870879, 2021-01-15)"
   sodipodi:docname="Missionary.svg">
  <defs
     id="defs2" />
  <sodipodi:namedview
     id="base"
     pagecolor="#ffffff"
     bordercolor="#666666"
     borderopacity="1.0"
     inkscape:pageopacity="0.0"
     inkscape:pageshadow="2"
     inkscape:zoom="14.265602"
     inkscape:cx="17.596878"
     inkscape:cy="14.189686"
     inkscape:document-units="mm"
     inkscape:current-layer="layer1"
     inkscape:document-rotation="0"
     showgrid="false"
     inkscape:window-width="1352"
     inkscape:window-height="736"
     inkscape:window-x="5"
     inkscape:window-y="23"
     inkscape:window-maximized="0" />
  <metadata
     id="metadata5">
    <rdf:RDF>
      <cc:Work
         rdf:about="">
        <dc:format>image/svg+xml</dc:format>
        <dc:type
           rdf:resource="http://purl.org/dc/dcmitype/StillImage" />
        <dc:title></dc:title>
      </cc:Work>
    </rdf:RDF>
  </metadata>
  <g
     inkscape:label="Layer 1"
     inkscape:groupmode="layer"
     id="layer1"
     transform="translate(-60.280419,-107.23525)">
    <path
       style="fill:#000000;fill-opacity:1;stroke:#000000;stroke-width:0.264583px;stroke-linecap:butt;stroke-linejoin:miter;stroke-opacity:1"
       d="m 60.531234,114.72137 6.676842,-0.006 0.0024,-0.52526 -0.497761,-0.31713 -2.433767,0.1022 0.05892,-0.27301 1.354619,-0.68002 -0.565497,-1.06287 0.803781,-0.9516 -0.0084,-0.89928 -0.340389,-0.44684 0.0038,-2.3443 -0.156645,1.06707 -0.465918,-0.0578 -0.619135,-0.74863 -0.681117,-0.0428 -0.755761,0.85751 -0.462108,-0.0146 -0.242954,-0.72226 -0.229994,0.70442 0.228817,0.3529 -0.01291,1.0352 -0.325789,0.38457 0.0046,1.16357 0.74789,0.4159 -0.46481,1.48248 0.928754,0.43581 -0.0087,0.29635 -2.121064,-0.0239 -0.520417,0.24441 z"
       id="path24"
       sodipodi:nodetypes="ccccccccccccccccccccccccccccccc" />
    <path
       style="fill:#ffffff;fill-opacity:1;stroke:#000000;stroke-width:0;stroke-linecap:butt;stroke-linejoin:miter;stroke-miterlimit:4;stroke-dasharray:none;stroke-opacity:1"
       d="m 63.946769,107.98588 -0.397692,0.4124 0.393102,0.48076 0.438621,-0.41095 z"
       id="path26" />
    <path
       style="fill:#ffffff;fill-opacity:1;stroke:#000000;stroke-width:0;stroke-linecap:butt;stroke-linejoin:miter;stroke-miterlimit:4;stroke-dasharray:none;stroke-opacity:1"
       d="m 63.772623,110.01933 0.0011,0.46602 -0.549601,0.0101 0.03005,0.34392 0.474761,-0.0148 -0.0048,0.53109 0.43167,-0.004 -0.01154,-0.48057 0.614228,-0.0444 -0.02869,-0.37737 -0.604031,0.0119 -0.01976,-0.44223 z"
       id="path28" />
  </g>
</svg>
