<?xml version="1.0" encoding="UTF-8"?>
<svg width="7.0627mm" height="7.6185mm" version="1.1" viewBox="0 0 7.0627 7.6185" xmlns="http://www.w3.org/2000/svg" xmlns:cc="http://creativecommons.org/ns#" xmlns:dc="http://purl.org/dc/elements/1.1/" xmlns:rdf="http://www.w3.org/1999/02/22-rdf-syntax-ns#">
<metadata>
<rdf:RDF>
<cc:Work rdf:about="">
<dc:format>image/svg+xml</dc:format>
<dc:type rdf:resource="http://purl.org/dc/dcmitype/StillImage"/>
<dc:title/>
</cc:Work>
</rdf:RDF>
</metadata>
<g transform="translate(-60.28 -107.24)">
<path d="m60.531 114.72 6.6768-6e-3 0.0024-0.52526-0.49776-0.31713-2.4338 0.1022 0.05892-0.27301 1.3546-0.68002-0.5655-1.0629 0.80378-0.9516-0.0084-0.89928-0.34039-0.44684 0.0038-2.3443-0.15664 1.0671-0.46592-0.0578-0.61914-0.74863-0.68112-0.0428-0.75576 0.85751-0.46211-0.0146-0.24295-0.72226-0.22999 0.70442 0.22882 0.3529-0.01291 1.0352-0.32579 0.38457 0.0046 1.1636 0.74789 0.4159-0.46481 1.4825 0.92875 0.43581-0.0087 0.29635-2.1211-0.0239-0.52042 0.24441z" stroke="#000" stroke-width=".26458px"/>
<path d="m63.947 107.99-0.39769 0.4124 0.3931 0.48076 0.43862-0.41095z" fill="#fff" stroke-width="0"/>
<path d="m63.773 110.02 0.0011 0.46602-0.5496 0.0101 0.03005 0.34392 0.47476-0.0148-0.0048 0.53109 0.43167-4e-3 -0.01154-0.48057 0.61423-0.0444-0.02869-0.37737-0.60403 0.0119-0.01976-0.44223z" fill="#fff" stroke-width="0"/>
</g>
</svg>
