<?xml version="1.0" encoding="UTF-8"?>
<svg width="8.4974mm" height="6.2725mm" version="1.1" viewBox="0 0 8.4974 6.2725" xmlns="http://www.w3.org/2000/svg" xmlns:cc="http://creativecommons.org/ns#" xmlns:dc="http://purl.org/dc/elements/1.1/" xmlns:rdf="http://www.w3.org/1999/02/22-rdf-syntax-ns#">
<metadata>
<rdf:RDF>
<cc:Work rdf:about="">
<dc:format>image/svg+xml</dc:format>
<dc:type rdf:resource="http://purl.org/dc/dcmitype/StillImage"/>
<dc:title/>
</cc:Work>
</rdf:RDF>
</metadata>
<g transform="translate(-74.552 -221.85)">
<path d="m74.711 224.05 1.3639 1.8724-0.11681 1.101 0.67517 0.95955 4.0779-0.13368 0.89953-1.1427-0.23597-0.79994 1.4586-1.7208 0.0795-1.012-0.73245-0.66623-1.3517 0.55718-1.0785-1.0166-1.6931-0.0689-1.1154 1.0037-0.71645 0.10301-0.6885-0.40638z" stroke="#000" stroke-width=".26458px"/>
<path d="m76.941 222.98 1.164 0.5025 1.5942-0.0619 1.1288-0.35886-0.34102-0.46558-3.1312 0.0694z" fill="none" stroke="#fff" stroke-width=".265"/>
<path d="m75.909 225.95 2.5689-0.30876 2.9747 0.26001 0.27452 0.8615-3.0902-0.28242-2.7681 0.44616z" fill="#fff" stroke-width="0"/>
</g>
</svg>
