<?xml version="1.0" encoding="UTF-8"?>
<svg width="7.9468mm" height="7.276mm" version="1.1" viewBox="0 0 7.9468 7.276" xmlns="http://www.w3.org/2000/svg" xmlns:cc="http://creativecommons.org/ns#" xmlns:dc="http://purl.org/dc/elements/1.1/" xmlns:rdf="http://www.w3.org/1999/02/22-rdf-syntax-ns#">
<metadata>
<rdf:RDF>
<cc:Work rdf:about="">
<dc:format>image/svg+xml</dc:format>
<dc:type rdf:resource="http://purl.org/dc/dcmitype/StillImage"/>
<dc:title/>
</cc:Work>
</rdf:RDF>
</metadata>
<g transform="translate(-56.415 -69.342)">
<path d="m63.572 76.472 0.44279-0.97207 0.21438-2.1832-0.09558-1.6841-0.52828-0.56666-1.0065 0.05101-0.02925-0.85549-0.61929-0.75015-0.43404 0.20015 0.14673 1.3051-0.44222-0.96739-0.74479-0.54216-0.5044 0.39154 0.87858 1.1039-0.04556 0.68257-0.71614 0.79093-0.89505-0.98798-0.22573 0.49955 0.29269 1.0722-0.18636 0.11725-0.72562-0.8993-0.55427-0.90238-0.45087-1.0278-0.62194 1.5529-0.17253 1.4291 0.18862 1.0267 0.52919 1.0253 1.0892 0.89626 2.379 0.16299 2.3194-1.3871 0.25972 1.3797z" stroke="#000" stroke-width=".26458px"/>
<path d="m60.405 73.193-0.83421 0.68778 0.29545 0.42642 1.04-0.52774 0.01093-0.68637z" fill="#fff" stroke-width="0"/>
</g>
</svg>
