<?xml version="1.0" encoding="UTF-8"?>
<svg width="9.4738mm" height="5.9872mm" version="1.1" viewBox="0 0 9.4738 5.9872" xmlns="http://www.w3.org/2000/svg" xmlns:cc="http://creativecommons.org/ns#" xmlns:dc="http://purl.org/dc/elements/1.1/" xmlns:rdf="http://www.w3.org/1999/02/22-rdf-syntax-ns#">
<metadata>
<rdf:RDF>
<cc:Work rdf:about="">
<dc:format>image/svg+xml</dc:format>
<dc:type rdf:resource="http://purl.org/dc/dcmitype/StillImage"/>
<dc:title/>
</cc:Work>
</rdf:RDF>
</metadata>
<g transform="translate(-89.287 -216.82)">
<path d="m90.302 221.52 1.4205 1.1391 4.6768-0.056 1.2249-0.84864-0.06211-0.72388-0.98548-0.13847-5.571 0.0268-0.64803 0.31396z" stroke="#fff" stroke-width=".3"/>
<path d="m90.639 221.1-0.2405-1.0785-0.6188-0.52163-0.34525-0.92564 0.79709-1.1946 0.71443 0.0202 0.52485 0.5134 0.0412 1.3022-0.62077 0.68916-0.47725 0.11241z" fill="none" stroke="#000" stroke-linecap="round" stroke-width=".265"/>
<path d="m90.721 217.36 0.33125-0.40368 0.85657 0.0662 0.79609 0.82682 2.7491-4e-3 0.73567-0.78482 1.0711 0.0107 0.19145 0.26596 0.48179 0.0382 0.57681 0.58729 0.11274 1.3041-0.79764 0.88445-0.93648-0.46695-0.45128-0.74561 0.131-1.1769 0.85328-0.48888" fill="none" stroke="#000" stroke-width=".26458px"/>
<path d="m97.349 220.98 0.47691-0.82737" fill="none" stroke="#000" stroke-width=".26458px"/>
<path d="m89.434 218.57 2.0593-0.1921" fill="none" stroke="#000" stroke-width=".26458px"/>
<path d="m98.656 218.48-2.1755-0.1286" fill="none" stroke="#000" stroke-width=".26458px"/>
<path d="m90.612 221.04-0.19845-1.029 0.47725-0.11241 0.62077-0.68916-0.0412-1.3022-0.52485-0.5134c-0.2277-0.17707-0.13569-2e-3 0.10638-0.4371l0.85657 0.0662 0.79609 0.82682 2.7491-4e-3 0.73567-0.78482 1.0711 0.0107 0.19145 0.26596-0.88305 0.4246-0.131 1.1769 0.45128 0.74561 0.93648 0.46695-0.47691 0.82737-0.73734-0.34781-5.571 0.0268z" stroke="#000" stroke-width=".26458px"/>
</g>
</svg>
